<?xml version="1.0" encoding="utf-8"?>
<!-- Generator: Adobe Illustrator 19.0.0, SVG Export Plug-In . SVG Version: 6.00 Build 0)  -->
<svg version="1.1" id="Layer_1" xmlns="http://www.w3.org/2000/svg" xmlns:xlink="http://www.w3.org/1999/xlink" x="0px" y="0px"
	 width="307px" height="307px" viewBox="0 0 307 307" style="enable-background:new 0 0 307 307;" xml:space="preserve">
<style type="text/css">
	.st0{fill:none;stroke:#FFFFFF;stroke-width:7;stroke-miterlimit:10;}
	.st1{fill:#FFFFFF;}
	.st2{fill:none;stroke:#FFFFFF;stroke-width:4;stroke-miterlimit:10;}
</style>
<circle id="XMLID_1_" class="st0" cx="153.5" cy="153.5" r="150"/>
<g id="XMLID_3_">
	<path id="XMLID_4_" class="st1" d="M183.9,143h25.5V95.4c0-7.8-0.4-13.1-1.1-16c-0.8-2.9-2-5.1-3.8-6.6c-1.8-1.5-5.3-3-10.6-4.4
		v-6.6h56.3v6.6c-5,1.3-8.5,2.7-10.5,4.2c-2,1.6-3.3,3.9-4,7c-0.7,3.1-1.1,8.4-1.1,15.7v116.2c0,5.2,0.1,9.1,0.4,11.7
		c0.3,2.6,0.7,4.7,1.3,6.2c0.6,1.6,1.4,2.8,2.3,3.8c0.9,1,2.2,1.9,3.8,2.7c1.7,0.8,4.2,1.7,7.7,2.6v6.6h-56.3v-6.6
		c4.9-1.3,8.4-2.6,10.3-4.2c2-1.5,3.3-3.8,4.1-7c0.8-3.1,1.1-8.4,1.1-15.8v-56.3h-25.5 M128.4,155.3H97.8v56.3
		c0,6,0.2,10.4,0.6,13.2c0.4,2.8,1.1,5,2,6.6c0.9,1.6,2.3,3,4.2,4c1.8,1.1,4.8,2.1,8.9,3.2v6.6H56.9v-6.6c5.5-1.4,9.3-3,11.1-4.8
		c1.9-1.7,3.1-4.2,3.7-7.5c0.6-3.2,0.9-8.1,0.9-14.8V95.4c0-6.2-0.2-10.7-0.7-13.5c-0.4-2.8-1.2-5-2.2-6.6c-1-1.6-2.4-2.8-4.1-3.8
		c-1.7-0.9-4.6-2-8.7-3.2v-6.6h56.5v6.6c-3.9,1-6.8,2-8.5,3c-1.7,1-3.1,2.2-4.2,3.7c-1,1.5-1.8,3.7-2.3,6.6c-0.5,3-0.7,7.5-0.7,13.7
		V143h30.6"/>
</g>
<g id="XMLID_6_">
	<path id="XMLID_7_" class="st2" d="M148.5,120.2c5.4,0,10,0.4,13.6,1.3c3.6,0.8,6.9,2.2,9.7,4c2.8,1.8,5.1,4,6.9,6.5
		c1.7,2.5,3,5.5,3.9,8.8c0.8,3.3,1.3,7.1,1.3,11.3c0,5.1-0.6,9.6-1.8,13.7c-1.2,4-3,7.5-5.3,10.4c-2.1,2.6-4.7,4.7-7.8,6.3
		s-6.6,2.8-10.6,3.5c-3.5,0.6-7.8,0.9-13,0.9h-22.2v-3.2c1.2-0.3,2.2-0.7,2.9-1c0.7-0.4,1.2-0.9,1.6-1.6s0.6-1.5,0.7-2.5
		s0.1-2.3,0.1-3.9v-42.1c0-1.5,0-2.8-0.1-3.9c-0.1-1-0.3-1.9-0.6-2.5c-0.3-0.7-0.9-1.2-1.6-1.6c-0.7-0.4-1.7-0.8-2.9-1.1v-3.2H148.5
		z M143.5,180.9c0.6,0.1,2.1,0.1,4.4,0.1c3.6,0,6.6-0.5,9-1.6c1.8-0.8,3.4-1.9,4.6-3.2c2.1-2.2,3.7-5.2,4.8-8.7
		c1.2-3.9,1.8-8.7,1.8-14.3c0-6.2-0.8-11.3-2.5-15.4c-1.7-4.1-4-7.1-7-9c-3-1.9-6.6-2.9-10.8-2.9c-2,0-3.5,0-4.3,0.1V180.9z"/>
</g>
</svg>
